<svg xmlns="http://www.w3.org/2000/svg" viewBox="0 0 39 42.6">
  <defs>
    <style>.cls-1{fill:#c70a80;}</style>
  </defs>
  <g id="Layer_2" data-name="Layer 2">
    <g id="Layer_2-2" data-name="Layer 2">
      <path class="cls-1" d="M.6,19.65l10.8,6.24a1.19,1.19,0,0,1,.6,1V39.41a1.2,1.2,0,0,0,.6,1l1.6.93V25.6a1.19,1.19,0,0,0-.6-1L0,16.71v1.9A1.2,1.2,0,0,0,.6,19.65Z"/>
      <path class="cls-1" d="M0,22.73v1.2l8,4.62v2L.6,26.27a.4.4,0,0,0-.6.35v1.67a.4.4,0,0,0,.2.34L8,33.14v2.07L0,30.59v1.66a1.6,1.6,0,0,0,.8,1.39L9,38.38a.81.81,0,0,0,1.2-.7v-10A.79.79,0,0,0,9.8,27L1.2,22A.81.81,0,0,0,0,22.73Z"/>
      <path class="cls-1" d="M0,14.65H0l15.19,8.77a1.59,1.59,0,0,1,.8,1.4l0,3.68V42.38h0a1.54,1.54,0,0,0,2.31-1.33V23.5a1.6,1.6,0,0,0-.8-1.38L2.25,13.35A1.5,1.5,0,0,0,0,14.65Z"/>
      <path class="cls-1" d="M27,39.38V26.91a1.2,1.2,0,0,1,.6-1L38.4,19.63a1.21,1.21,0,0,0,.6-1V16.74L25.34,24.62a1.22,1.22,0,0,0-.6,1V41.37l1.64-.95A1.2,1.2,0,0,0,27,39.38Z"/>
      <path class="cls-1" d="M30,38.36l1-.6V28.52l1.73-1v8.55a.4.4,0,0,0,.6.35l1.44-.84a.38.38,0,0,0,.2-.34v-9l1.8-1v9.24l1.44-.83a1.63,1.63,0,0,0,.8-1.39V22.74a.8.8,0,0,0-1.2-.69l-8.65,5a.78.78,0,0,0-.4.69v9.93A.8.8,0,0,0,30,38.36Z"/>
      <path class="cls-1" d="M23,42.4h0V24.86a1.59,1.59,0,0,1,.81-1.39L27,21.64l12-6.93V14.6a1.5,1.5,0,0,0-2.25-1.29l-12.08,7-3.18,1.84a1.58,1.58,0,0,0-.8,1.38l0,17.6A1.5,1.5,0,0,0,23,42.4Z"/>
      <path class="cls-1" d="M30.89,7l-10.8,6.23a1.17,1.17,0,0,1-1.2,0L8.08,7a1.17,1.17,0,0,0-1.2,0L5.28,8l13.65,7.89a1.22,1.22,0,0,0,1.2,0L33.73,8,32.09,7A1.17,1.17,0,0,0,30.89,7Z"/>
      <path class="cls-1" d="M28.53,5l-1.05-.6L19.48,9,17.76,8l7.4-4.28a.4.4,0,0,0,0-.69L23.71,2.2a.41.41,0,0,0-.4,0l-7.8,4.5-1.79-1,8-4.62L20.28.21a1.65,1.65,0,0,0-1.61,0L10.47,5a.8.8,0,0,0,0,1.38l8.66,5a.81.81,0,0,0,.8,0l8.6-5A.8.8,0,0,0,28.53,5Z"/>
      <path class="cls-1" d="M35.52,9h0L20.33,17.79a1.58,1.58,0,0,1-1.61,0L3.52,9,3.44,9a1.51,1.51,0,0,0,0,2.6L18.7,20.94a1.65,1.65,0,0,0,1.61,0l15.22-9.33A1.5,1.5,0,0,0,35.52,9Z"/>
    </g>
  </g>
</svg>